<svg width="277" height="77" viewBox="0 0 277 77" fill="none" xmlns="http://www.w3.org/2000/svg">
<g clip-path="url(#clip0_0_6)">
<path d="M93.6819 72.765V31.0491C94.7234 31.0491 95.8631 31.0491 97.0934 30.9661L100.935 30.7396C102.264 30.644 103.622 30.5685 105.011 30.5132C106.4 30.4578 107.766 30.4201 109.109 30.3999C112.14 30.3225 115.154 30.8725 117.963 32.0154C120.319 33.0025 122.394 34.5587 124.001 36.5448C125.625 38.5641 126.808 40.9018 127.473 43.4069C128.231 46.2377 128.604 49.1577 128.582 52.0883C128.623 55.0662 128.268 58.0364 127.526 60.9206C126.912 63.3156 125.755 65.5371 124.144 67.4128C122.475 69.2284 120.379 70.5984 118.046 71.3987C115.107 72.3592 112.026 72.811 108.936 72.7348L93.6819 72.765ZM101.796 65.216H108.936C110.65 65.2516 112.359 65.0302 114.008 64.5592C115.35 64.1518 116.559 63.3934 117.51 62.3625C118.483 61.2203 119.173 59.8652 119.525 58.4068C120.001 56.4684 120.222 54.4763 120.182 52.4808C120.182 47.5488 119.291 43.8674 117.51 41.4366C115.729 39.0058 112.928 37.7904 109.109 37.7904C108.445 37.7904 107.721 37.7904 106.943 37.8508C106.166 37.9112 105.434 37.9339 104.724 37.9942L102.845 38.1075C102.316 38.1075 101.962 38.1603 101.796 38.1603V65.216Z" fill="white"/>
<path d="M179.635 72.765V31.0189H186.835C188.017 31.8819 189.114 32.8551 190.111 33.9253C191.402 35.2388 192.768 36.7713 194.209 38.5377C195.651 40.3042 197.153 42.2292 198.655 44.3203C200.157 46.4114 201.576 48.5553 202.919 50.7521C203.274 51.3395 203.589 51.9498 203.863 52.5789C204.193 53.309 204.459 54.0668 204.655 54.8436V31.0189H212.769V72.765H205.086C204.386 70.6563 203.589 68.5879 202.693 66.5597C201.802 64.529 200.851 62.5587 199.848 60.6639C198.844 58.7691 197.81 56.9423 196.745 55.1984C195.681 53.4546 194.617 51.8165 193.553 50.2991C192.489 48.7818 191.485 47.3475 190.481 46.0566C189.477 44.7657 188.571 43.6258 187.718 42.6369V72.765H179.635Z" fill="white"/>
<path d="M226.242 72.765V31.0189H234.356V72.765H226.242Z" fill="white"/>
<path d="M246.455 42.7803C246.377 40.9029 246.791 39.0379 247.656 37.3697C248.52 35.7015 249.805 34.2878 251.383 33.2685C252.983 32.2281 254.757 31.4864 256.621 31.0793C258.675 30.6195 260.774 30.3916 262.878 30.3999C264.868 30.3896 266.857 30.503 268.833 30.7396C270.635 30.966 272.227 31.2177 273.611 31.4945V39.4813C272.607 39.2322 271.641 39.0058 270.713 38.7944C269.784 38.583 268.886 38.4094 267.981 38.2584C267.075 38.1074 266.139 37.9866 265.188 37.9111C264.237 37.8357 263.278 37.7979 262.252 37.7979C261.277 37.7884 260.304 37.8948 259.354 38.115C258.552 38.2708 257.785 38.57 257.089 38.9982C256.496 39.3459 255.996 39.833 255.633 40.4174C255.283 41.0031 255.105 41.6754 255.119 42.3575C255.103 42.7973 255.175 43.236 255.332 43.6472C255.489 44.0584 255.727 44.4337 256.033 44.7506C256.736 45.4173 257.558 45.9472 258.455 46.3132C259.577 46.7643 260.73 47.1352 261.905 47.4229C263.193 47.75 264.504 48.1199 265.837 48.5326C267.168 48.9543 268.471 49.4585 269.739 50.0424C271.007 50.6157 272.17 51.3964 273.181 52.3524C274.21 53.3478 275.027 54.542 275.581 55.8627C276.23 57.4915 276.538 59.236 276.487 60.9885C276.526 62.832 276.128 64.6584 275.324 66.3181C274.571 67.8496 273.467 69.1816 272.102 70.2058C270.598 71.282 268.909 72.0726 267.12 72.5385C265.02 73.0752 262.857 73.3291 260.689 73.2934C259.535 73.2934 258.304 73.2406 257.014 73.1273C255.723 73.0141 254.493 72.8631 253.24 72.6744C251.987 72.4856 250.87 72.2365 249.791 71.9874C248.876 71.7688 247.974 71.5017 247.089 71.1872V63.223C248.04 63.5854 249.043 63.9779 250.108 64.2799C251.172 64.5818 252.304 64.8989 253.466 65.1631C254.629 65.4273 255.799 65.6085 256.991 65.7595C258.21 65.9108 259.438 65.9864 260.667 65.986C262.485 66.092 264.294 65.6671 265.875 64.763C266.493 64.3551 266.992 63.7912 267.322 63.1284C267.652 62.4656 267.801 61.7274 267.754 60.9885C267.799 59.9797 267.474 58.9891 266.841 58.2029C266.176 57.435 265.352 56.8217 264.426 56.4062C263.325 55.8959 262.181 55.4866 261.006 55.1833C259.738 54.8436 258.425 54.4812 257.082 54.0962C255.738 53.7112 254.448 53.2432 253.18 52.7299C251.945 52.2211 250.793 51.5316 249.76 50.6841C248.736 49.8052 247.912 48.7162 247.345 47.4909C246.701 46.0067 246.397 44.3972 246.455 42.7803Z" fill="white"/>
<path d="M93.7649 4.52938V1.91742H105.366V4.52938H100.996V16.6758H98.1199V4.52938H93.7649Z" fill="white"/>
<path d="M114.106 9.29285C114.106 8.61816 114.156 7.9444 114.257 7.27727C114.346 6.65552 114.503 6.04542 114.725 5.45795C114.936 4.91833 115.221 4.41031 115.57 3.94815C115.919 3.48609 116.342 3.08552 116.823 2.76295C117.343 2.42359 117.914 2.1688 118.514 2.00805C119.228 1.81833 119.964 1.7269 120.703 1.73628C121.436 1.72579 122.168 1.81725 122.876 2.00805C123.479 2.16732 124.052 2.42218 124.575 2.76295C125.059 3.08326 125.485 3.4841 125.835 3.94815C126.187 4.40856 126.472 4.91697 126.68 5.45795C126.911 6.0437 127.073 6.65421 127.163 7.27727C127.268 7.94397 127.318 8.61802 127.314 9.29285C127.319 9.9702 127.268 10.6468 127.163 11.316C127.074 11.9368 126.912 12.5449 126.68 13.1278C126.472 13.6687 126.187 14.1771 125.835 14.6376C125.49 15.1114 125.066 15.5225 124.582 15.853C124.058 16.1907 123.485 16.4454 122.884 16.6079C122.175 16.7986 121.444 16.8901 120.71 16.8796C119.964 16.8911 119.22 16.7996 118.499 16.6079C117.9 16.4446 117.329 16.19 116.808 15.853C116.327 15.5277 115.904 15.1246 115.555 14.6602C115.205 14.198 114.921 13.69 114.71 13.1504C114.484 12.5661 114.325 11.9584 114.234 11.3386C114.14 10.661 114.097 9.97705 114.106 9.29285ZM117.027 9.29285C117.017 10.0306 117.088 10.7673 117.238 11.4896C117.349 12.0578 117.569 12.5989 117.887 13.0825C118.175 13.5016 118.568 13.8376 119.027 14.0563C119.557 14.2886 120.132 14.402 120.71 14.3884C121.284 14.403 121.854 14.2895 122.378 14.0563C122.843 13.8441 123.24 13.507 123.525 13.0825C123.849 12.6011 124.073 12.0594 124.182 11.4896C124.333 10.7673 124.403 10.0306 124.393 9.29285C124.404 8.56005 124.333 7.82834 124.182 7.11119C124.074 6.5387 123.851 5.9942 123.525 5.51079C123.239 5.08607 122.842 4.74695 122.378 4.52942C121.854 4.29618 121.284 4.18272 120.71 4.19726C120.132 4.18372 119.557 4.2971 119.027 4.52942C118.569 4.75348 118.177 5.09141 117.887 5.51079C117.568 5.99633 117.347 6.54019 117.238 7.11119C117.087 7.82834 117.016 8.56005 117.027 9.29285Z" fill="white"/>
<path d="M137.481 16.6758V1.91743C138.085 1.91743 138.643 1.91743 139.164 1.87214L140.613 1.8042L141.851 1.73625C142.234 1.70606 142.588 1.69096 142.915 1.69096C143.796 1.67365 144.676 1.78038 145.527 2.00802C146.186 2.17627 146.802 2.4853 147.331 2.9139C147.792 3.28961 148.149 3.77859 148.365 4.33312C148.6 4.93401 148.715 5.57515 148.704 6.22037C148.723 6.93788 148.578 7.65019 148.282 8.3039C148.024 8.89052 147.631 9.40784 147.135 9.81371C146.622 10.2141 146.038 10.5138 145.414 10.6969C144.717 10.8975 143.995 10.9967 143.27 10.9914H142.81L142.251 10.9461C142.07 10.9461 141.881 10.8857 141.693 10.8404C141.512 10.8049 141.333 10.7596 141.157 10.7045V7.99439C141.335 8.06945 141.52 8.13003 141.708 8.17557L142.251 8.2888L142.749 8.3492H143.157C143.515 8.35296 143.872 8.31496 144.221 8.23596C144.509 8.17627 144.781 8.05807 145.021 7.88871C145.244 7.71839 145.42 7.49524 145.534 7.23949C145.663 6.93399 145.725 6.60454 145.716 6.27322C145.72 6.00413 145.679 5.73624 145.595 5.48057C145.52 5.2361 145.375 5.01854 145.18 4.854C144.943 4.65873 144.664 4.5217 144.365 4.4539C143.938 4.34402 143.499 4.29322 143.059 4.30292C142.772 4.30292 142.493 4.30292 142.221 4.30292C141.957 4.30292 141.708 4.30292 141.466 4.34822L140.825 4.40106H140.349V16.6758H137.481Z" fill="white"/>
<path d="M171.106 9.29283C171.096 8.2595 171.233 7.23 171.514 6.23548C171.759 5.3528 172.189 4.5321 172.774 3.82734C173.362 3.14566 174.101 2.6106 174.933 2.26469C175.93 1.86604 176.998 1.67345 178.073 1.69852C178.816 1.69526 179.56 1.73307 180.299 1.81175C180.902 1.87422 181.502 1.96744 182.095 2.09107V4.90685C181.741 4.80116 181.401 4.71812 181.076 4.64263C180.752 4.56714 180.427 4.50675 180.095 4.46146C179.763 4.41616 179.446 4.37087 179.114 4.34822C178.782 4.32558 178.435 4.34822 178.073 4.34822C177.51 4.30331 176.945 4.38895 176.422 4.59847C175.898 4.80798 175.43 5.13571 175.053 5.55607C174.384 6.35626 174.05 7.61443 174.05 9.33057C174.034 10.094 174.123 10.8559 174.314 11.5953C174.454 12.1468 174.712 12.6616 175.069 13.1051C175.408 13.5018 175.845 13.8035 176.337 13.9808C176.9 14.1715 177.493 14.2634 178.088 14.2525C178.693 14.2495 179.298 14.2142 179.899 14.1468C180.627 14.0446 181.348 13.8958 182.058 13.7015V16.4493C181.486 16.5858 180.906 16.6866 180.322 16.7513C179.57 16.8408 178.814 16.8812 178.057 16.872C176.99 16.8937 175.927 16.7276 174.918 16.3814C174.123 16.0654 173.412 15.5692 172.842 14.9319C172.245 14.2431 171.807 13.4312 171.559 12.554C171.256 11.4935 171.104 10.3957 171.106 9.29283Z" fill="white"/>
<path d="M192.466 16.6758V1.91742H195.334V13.9959H201.833V16.6682L192.466 16.6758Z" fill="white"/>
<path d="M211.162 16.6758V1.91742H214.03V16.6758H211.162Z" fill="white"/>
<path d="M224.921 16.6758V1.91742H227.472C227.889 2.22241 228.275 2.56616 228.627 2.94409C229.087 3.40458 229.563 3.94811 230.076 4.57467C230.589 5.20124 231.118 5.88066 231.646 6.61291C232.174 7.34517 232.68 8.12271 233.156 8.87762C233.429 9.33211 233.637 9.82249 233.774 10.3346V1.91742H236.643V16.6758H233.903C233.654 15.9209 233.374 15.1659 233.057 14.479C232.74 13.792 232.408 13.0673 232.046 12.3955C231.684 11.7236 231.329 11.0819 230.952 10.4629C230.574 9.84389 230.197 9.27017 229.827 8.72664C229.457 8.18311 229.072 7.68487 228.74 7.21683C228.408 6.74879 228.061 6.35624 227.759 6.00899V16.6758H224.921Z" fill="white"/>
<path d="M247.466 16.6758V1.91742H250.334V16.6758H247.466Z" fill="white"/>
<path d="M260.395 9.29281C260.382 8.25984 260.517 7.23034 260.795 6.23546C261.041 5.35278 261.47 4.53208 262.056 3.82732C262.644 3.14564 263.383 2.61058 264.214 2.26467C265.214 1.86542 266.285 1.67283 267.362 1.69849C268.103 1.69543 268.844 1.73323 269.581 1.81173C270.184 1.87419 270.783 1.96742 271.377 2.09104V4.90683C271.022 4.80114 270.69 4.7181 270.358 4.64261C270.026 4.56712 269.709 4.50673 269.384 4.46144C269.06 4.41614 268.728 4.37085 268.396 4.3482C268.064 4.32555 267.724 4.3482 267.362 4.3482C266.799 4.30386 266.235 4.38977 265.711 4.59926C265.187 4.80874 264.719 5.13615 264.343 5.55604C263.586 6.66231 263.232 7.99457 263.339 9.33055C263.327 10.0938 263.416 10.8552 263.603 11.5953C263.744 12.1467 264.001 12.6616 264.358 13.1051C264.709 13.5177 265.166 13.828 265.678 14.0034C266.242 14.1941 266.835 14.286 267.43 14.2752C268.035 14.2721 268.639 14.2368 269.241 14.1695C269.969 14.0672 270.69 13.9184 271.4 13.7241V16.4719C270.828 16.6084 270.248 16.7092 269.664 16.7739C268.912 16.8635 268.156 16.9038 267.399 16.8947C266.332 16.9157 265.269 16.7497 264.26 16.404C263.426 16.0941 262.678 15.5894 262.078 14.9319C261.481 14.243 261.043 13.4312 260.795 12.554C260.511 11.4909 260.376 10.3932 260.395 9.29281Z" fill="white"/>
<path d="M44.8182 22.7075L45.3239 0.966293C45.3298 0.79803 45.3792 0.634169 45.4673 0.490705C45.5571 0.343836 45.6849 0.223884 45.8371 0.14345C45.9889 0.0669286 46.1578 0.0305456 46.3277 0.0377633C46.4966 0.0462744 46.6604 0.0982823 46.8032 0.188744L65.8536 12.3578C65.9606 12.4273 66.0527 12.5173 66.1247 12.6226C66.1967 12.7279 66.2472 12.8465 66.2732 12.9714C66.2991 13.0964 66.3001 13.2252 66.276 13.3505C66.2519 13.4758 66.2033 13.5951 66.1328 13.7015C66.0375 13.8427 65.9076 13.957 65.7554 14.0336L46.2371 23.5907C46.0896 23.6723 45.9225 23.7115 45.7541 23.7039C45.5833 23.6994 45.4167 23.6499 45.271 23.5605C45.1283 23.468 45.0114 23.3407 44.9314 23.1906C44.8558 23.0408 44.817 22.8752 44.8182 22.7075Z" fill="white"/>
<path d="M29.8586 22.7074L30.0549 0.966252C30.0559 0.795385 30.0109 0.627398 29.9245 0.479949C29.8382 0.332499 29.7138 0.211031 29.5643 0.128311C29.4157 0.041193 29.2459 -0.00321498 29.0737 -2.23177e-05C28.9023 0.00112573 28.7348 0.0508612 28.5906 0.143409L9.17798 11.6859C9.02791 11.7707 8.90492 11.8964 8.82324 12.0482C8.74182 12.1988 8.70025 12.3677 8.70248 12.5389C8.70969 12.7104 8.76174 12.877 8.85343 13.022C8.9433 13.1689 9.07105 13.2889 9.22327 13.3693L28.4925 23.5152C28.6343 23.5823 28.7906 23.6133 28.9473 23.6054C29.104 23.5975 29.2563 23.551 29.3907 23.4699C29.5275 23.3921 29.6419 23.2803 29.7228 23.1453C29.8028 23.0125 29.8494 22.8622 29.8586 22.7074Z" fill="white"/>
<path d="M53.1583 37.2997L71.7483 25.9761C71.8931 25.8859 72.0607 25.8387 72.2313 25.8403C72.4029 25.8344 72.5727 25.8762 72.7219 25.9611C72.868 26.0445 72.9901 26.1641 73.0767 26.3083C73.1661 26.4563 73.213 26.6261 73.2125 26.799V49.4461C73.2121 49.6165 73.1651 49.7835 73.0767 49.9292C72.9901 50.0734 72.868 50.193 72.7219 50.2764C72.5727 50.3613 72.4029 50.4031 72.2313 50.3972C72.0607 50.3988 71.8931 50.3516 71.7483 50.2614L53.1583 38.9378C53.0146 38.8531 52.8971 38.7303 52.8187 38.583C52.7352 38.4411 52.6909 38.2796 52.6904 38.115C52.6917 37.9481 52.7359 37.7843 52.8187 37.6394C52.9004 37.4985 53.0175 37.3814 53.1583 37.2997Z" fill="white"/>
<path d="M20.0693 37.2997L1.46427 25.9762C1.31628 25.8868 1.14657 25.8398 0.973674 25.8403C0.801015 25.8333 0.63019 25.878 0.483075 25.9687C0.332153 26.0529 0.207284 26.1771 0.122098 26.3275C0.0369119 26.4779 -0.00531636 26.6489 2.30838e-05 26.8217V49.4235C0.000379282 49.5929 0.0445836 49.7593 0.128334 49.9066C0.215066 50.0552 0.340207 50.1778 0.490622 50.2614C0.640606 50.3451 0.809446 50.3893 0.981222 50.3897C1.15187 50.3841 1.3182 50.3347 1.46427 50.2463L20.0693 38.9228C20.2114 38.836 20.3285 38.7137 20.409 38.568C20.4867 38.4241 20.5282 38.2634 20.5297 38.0999C20.5273 37.9341 20.486 37.7712 20.409 37.6243C20.3232 37.4906 20.2068 37.3793 20.0693 37.2997Z" fill="white"/>
<path d="M44.9163 54.1642V75.8903C44.9182 76.0605 44.9651 76.2272 45.0521 76.3735C45.138 76.5208 45.2616 76.6425 45.4102 76.7261C45.5588 76.8097 45.727 76.8521 45.8975 76.849C46.0676 76.8471 46.2343 76.8002 46.3805 76.7132L65.7101 64.982C65.8564 64.8948 65.9764 64.7695 66.0573 64.6196C66.1465 64.4715 66.1936 64.3019 66.1936 64.1289C66.1936 63.956 66.1465 63.7864 66.0573 63.6383C65.9601 63.4968 65.8308 63.3804 65.6799 63.2985L46.3277 53.3036C46.1807 53.2287 46.0171 53.1923 45.8522 53.198C45.6861 53.2027 45.5244 53.2522 45.3842 53.3414C45.2408 53.4231 45.1231 53.5434 45.0446 53.6886C44.9611 53.8333 44.9169 53.9972 44.9163 54.1642Z" fill="white"/>
<path d="M29.8587 54.1642L30.0322 75.8903C30.0389 76.0619 29.9971 76.232 29.9115 76.381C29.8249 76.5317 29.6999 76.6568 29.5492 76.7433C29.3992 76.8271 29.2304 76.8712 29.0586 76.8717C28.8856 76.866 28.7168 76.8166 28.568 76.7282L9.1629 65.1858C9.01188 65.0963 8.88696 64.9687 8.80061 64.8159C8.71815 64.6632 8.67899 64.4909 8.6874 64.3176C8.69385 64.1449 8.74878 63.9775 8.8459 63.8345C8.93774 63.6856 9.07172 63.5674 9.23083 63.4948L28.4925 53.3414C28.6379 53.2799 28.7952 53.2515 28.9529 53.2583C29.106 53.2706 29.254 53.3187 29.3851 53.3987C29.5162 53.4787 29.6267 53.5883 29.7077 53.7188C29.7954 53.8519 29.8474 54.0052 29.8587 54.1642Z" fill="white"/>
<path fill-rule="evenodd" clip-rule="evenodd" d="M142.342 54.2548C142.342 53.666 142.402 53.0696 142.402 52.4657C142.491 50.4666 142.38 48.4638 142.07 46.4868H167.438V54.0359L142.342 54.2548ZM140.319 38.0395C138.537 35.1114 136.214 32.5494 133.473 30.4905H167.438V38.0395H140.319ZM135.579 72.2818C137.915 70.1213 139.851 67.5658 141.3 64.7328H167.438V72.2818H135.579Z" fill="#44D62D"/>
</g>
<defs>
<clipPath id="clip0_0_6">
<rect width="277" height="77" fill="white"/>
</clipPath>
</defs>
</svg>
